# xmcd CD database file
#
# Track frame offsets:
#	182
#	12227
#	26735
#	49102
#	62102
#	84532
#	97987
#	115567
#	128902
#	145265
#	156482
#	173950
#	193747
#	210992
#	221732
#	237520
#	260195
#	289172
#	305772
#	321557
#
# Disc length: 4511 seconds
#
# Revision: 25
# Processed by: cddbd v1.5.2PL0 Copyright (c) Steve Scherf et al.
# Submitted via: CDex 1.78
#
DISCID=35119d14
DTITLE=Gram Parsons - GP and Grievous Angel
DYEAR=1973
DGENRE=Country Rock
TTITLE0=Still Feeling Blue
TTITLE1=We'll Sweep Out the Ashes in the Morning
TTITLE2=A Song for You
TTITLE3=Streets of Baltimore
TTITLE4=She
TTITLE5=That's All It Took
TTITLE6=The New Soft Shoe
TTITLE7=Kiss the Children
TTITLE8=Cry One More Time
TTITLE9=How Much I've Lied
TTITLE10=Big Mouth Blues
TTITLE11=Return of the Grievous Angel
TTITLE12=Hearts on Fire
TTITLE13=I Can't Dance
TTITLE14=Brass Buttons
TTITLE15=$1000 Wedding
TTITLE16=Cash on the Barrelhead - Hickory Wind (Live)
TTITLE17=Love Hurts
TTITLE18=Ooh Las Vegas
TTITLE19=In My Hour of Darkness
EXTD=Two albums on one CD.\n GP - tracks 1-11\nGrievous Angel - tracks 12-20\n\n1973, 1974, 1990\nReprise Records and Warner Communications Company YEAR: 1973
EXTT0=
EXTT1=
EXTT2=
EXTT3=
EXTT4=
EXTT5=
EXTT6=
EXTT7=
EXTT8=
EXTT9=
EXTT10=
EXTT11=
EXTT12=
EXTT13=
EXTT14=
EXTT15=
EXTT16=
EXTT17=
EXTT18=
EXTT19=
PLAYORDER=
